<svg width="19" height="25" viewBox="0 0 19 25" fill="none" xmlns="http://www.w3.org/2000/svg">
<path d="M3.40912 6.25L3.6234 14.5227L3.98676 20.0721C4.06737 21.3033 4.10768 21.919 4.40882 22.3665C4.57762 22.6174 4.8011 22.8267 5.06246 22.9787C5.52873 23.25 6.14565 23.25 7.37949 23.25H12.4387C13.6726 23.25 14.2895 23.25 14.7558 22.9787C15.0171 22.8267 15.2406 22.6174 15.4094 22.3665C15.7106 21.919 15.7509 21.3033 15.8315 20.0721L16.1948 14.5227L16.4091 6.25M1.90912 6.25H17.9091" stroke="#1C943F" stroke-width="2" stroke-linecap="round" stroke-linejoin="round"/>
<path d="M9.90912 6.25L10.1952 4.53328C10.2821 4.01186 10.3256 3.75115 10.4307 3.51638C10.4905 3.38283 10.5648 3.25624 10.6522 3.1389C10.8058 2.93262 11.0122 2.76751 11.425 2.43728L12.9091 1.25" stroke="#1C943F" stroke-width="2" stroke-linecap="round" stroke-linejoin="round"/>
</svg>
