<svg width="31" height="21" viewBox="0 0 31 21" fill="none" xmlns="http://www.w3.org/2000/svg">
<path d="M14.6897 19.25H4.40124C3.44487 19.25 2.96668 19.25 2.41789 18.809C2.04905 18.5126 1.66666 17.7056 1.67081 17.2325C1.67699 16.5284 1.86768 16.2954 2.24906 15.8292C3.54634 14.2437 5.77634 12.7045 9.54547 12.7045C13.3146 12.7045 15.5446 14.2437 16.8419 15.8292C17.2233 16.2954 17.414 16.5284 17.4201 17.2325C17.4243 17.7056 17.0419 18.5126 16.6731 18.809C16.1243 19.25 15.6461 19.25 14.6897 19.25Z" stroke="#1C943F" stroke-width="2" stroke-linecap="round"/>
<path d="M13.6365 5.34091C13.6365 6.57516 13.0899 7.68175 12.2255 8.43182C11.5077 9.05478 10.5707 9.43182 9.54556 9.43182C7.28621 9.43182 5.45465 7.60026 5.45465 5.34091C5.45465 3.08156 7.28621 1.25 9.54556 1.25C10.5707 1.25 11.5077 1.62704 12.2255 2.25C13.0899 3.00007 13.6365 4.10666 13.6365 5.34091Z" stroke="#1C943F" stroke-width="2"/>
<path d="M15.5455 14.5612C16.8911 13.5128 18.8142 12.7045 21.5455 12.7045C25.3146 12.7045 27.5446 14.2437 28.8419 15.8292C29.2233 16.2954 29.414 16.5284 29.4201 17.2325C29.4243 17.7056 29.0419 18.5126 28.6731 18.809C28.1243 19.25 27.6461 19.25 26.6897 19.25H15.5455" stroke="#1C943F" stroke-width="2" stroke-linecap="round"/>
<path d="M25.6364 5.34091C25.6364 6.57516 25.0898 7.68175 24.2255 8.43182C23.5077 9.05478 22.5706 9.43182 21.5455 9.43182C19.2862 9.43182 17.4546 7.60026 17.4546 5.34091C17.4546 3.08156 19.2862 1.25 21.5455 1.25C22.5706 1.25 23.5077 1.62704 24.2255 2.25C25.0898 3.00007 25.6364 4.10666 25.6364 5.34091Z" stroke="#1C943F" stroke-width="2"/>
</svg>
