<svg width="24" height="25" viewBox="0 0 24 25" fill="none" xmlns="http://www.w3.org/2000/svg">
<path d="M19 3.0007C17.5 4.50122 14.5 5.9937 11 5.9937H5.55C4.56797 5.9937 4.07696 5.9937 3.71625 6.21474C3.51442 6.33842 3.34472 6.50812 3.22104 6.70995C3 7.07066 3 7.56167 3 8.5437V9M19 3.0007V3.0007C19 2.53525 19 2.30253 19.0511 2.11178C19.1898 1.59414 19.5942 1.18981 20.1118 1.05111C20.3026 1 20.535 1 21 1V1C21.465 1 21.6975 1 21.8882 1.05111C22.4059 1.18981 22.8102 1.59414 22.9489 2.11178C23 2.30253 23 2.53501 23 2.99999V20.094C23 20.5565 23 20.7877 22.9493 20.9778C22.8117 21.4935 22.4104 21.8972 21.8955 22.0379C21.7058 22.0898 21.4745 22.0912 21.0121 22.094V22.094C20.5446 22.0968 20.3108 22.0982 20.1191 22.0479C19.5987 21.9112 19.1913 21.5063 19.0515 20.9867C19 20.7953 19 20.5615 19 20.094V20.0066M19 3.0007V20.0066M19 20.0066C17.5 18.5061 14.5 15.9972 11 15.9972H10M4.99999 15.9972V15.9972C4.53501 15.9972 4.30253 15.9972 4.11178 15.9461C3.59414 15.8074 3.18981 15.4031 3.05111 14.8854C3 14.6947 3 14.4622 3 13.9972V13M4.99999 15.9972L5.72844 21.8269C5.82989 22.6387 5.88061 23.0446 6.08383 23.3435C6.22536 23.5516 6.41699 23.7208 6.64106 23.8354C6.96281 24 7.37188 24 8.19002 24V24C9.215 24 9.72749 24 10.0902 23.7755C10.3415 23.62 10.5413 23.3937 10.6645 23.1251C10.8422 22.7373 10.7787 22.2288 10.6516 21.2117L10 15.9972M4.99999 15.9972H10M3 9C3 9 1 9 1 11C1 13 3 13 3 13M3 9V13" stroke="#1C943F" stroke-width="2"/>
</svg>
