<svg width="25" height="25" viewBox="0 0 25 25" fill="none" xmlns="http://www.w3.org/2000/svg">
<path d="M4.58182 7.5H7.01182C7.07729 7.5 7.11003 7.5 7.13407 7.48526C7.14753 7.47702 7.15884 7.46571 7.16709 7.45225C7.18182 7.4282 7.18182 7.39547 7.18182 7.33V4.9C7.18182 3.59063 7.18182 2.93594 7.47654 2.455C7.64145 2.18589 7.86772 1.95963 8.13683 1.79472C8.61777 1.5 9.27245 1.5 10.5818 1.5H13.7818C15.0912 1.5 15.7459 1.5 16.2268 1.79472C16.4959 1.95963 16.7222 2.18589 16.8871 2.455C17.1818 2.93594 17.1818 3.59063 17.1818 4.9V7.33C17.1818 7.39547 17.1818 7.4282 17.1966 7.45225C17.2048 7.46571 17.2161 7.47702 17.2296 7.48526C17.2536 7.5 17.2864 7.5 17.3518 7.5H19.7818C21.0912 7.5 21.7459 7.5 22.2268 7.79472C22.4959 7.95963 22.7222 8.18589 22.8871 8.455C23.1818 8.93594 23.1818 9.59063 23.1818 10.9V14.1C23.1818 15.4094 23.1818 16.0641 22.8871 16.545C22.7222 16.8141 22.4959 17.0404 22.2268 17.2053C21.7459 17.5 21.0912 17.5 19.7818 17.5H17.3518C17.2864 17.5 17.2536 17.5 17.2296 17.5147C17.2161 17.523 17.2048 17.5343 17.1966 17.5478C17.1818 17.5718 17.1818 17.6045 17.1818 17.67V20.1C17.1818 21.4094 17.1818 22.0641 16.8871 22.545C16.7222 22.8141 16.4959 23.0404 16.2268 23.2053C15.7459 23.5 15.0912 23.5 13.7818 23.5H10.5818C9.27245 23.5 8.61777 23.5 8.13683 23.2053C7.86772 23.0404 7.64145 22.8141 7.47654 22.545C7.18182 22.0641 7.18182 21.4094 7.18182 20.1V17.67C7.18182 17.6045 7.18182 17.5718 7.16709 17.5478C7.15884 17.5343 7.14753 17.523 7.13407 17.5147C7.11003 17.5 7.07729 17.5 7.01182 17.5H4.58182C3.27245 17.5 2.61777 17.5 2.13683 17.2053C1.86772 17.0404 1.64145 16.8141 1.47654 16.545C1.18182 16.0641 1.18182 15.4094 1.18182 14.1V10.9C1.18182 9.59063 1.18182 8.93594 1.47654 8.455C1.64145 8.18589 1.86772 7.95963 2.13683 7.79472C2.61777 7.5 3.27245 7.5 4.58182 7.5Z" stroke="#1C943F" stroke-width="2" stroke-linecap="round" stroke-linejoin="round"/>
</svg>
