<svg width="24" height="24" viewBox="0 0 24 24" fill="none" xmlns="http://www.w3.org/2000/svg">
<path d="M1 8.79168C1 6.49472 1 5.34624 1.51576 4.5046C1.80435 4.03365 2.20031 3.6377 2.67126 3.3491C3.5129 2.83334 4.6586 2.83334 6.95 2.83334H17.05C19.3414 2.83334 20.4871 2.83334 21.3287 3.3491C21.7997 3.6377 22.1956 4.03365 22.4842 4.5046C23 5.34624 23 6.49472 23 8.79168V8.79168V17.05C23 19.3414 23 20.4871 22.4842 21.3288C22.1956 21.7997 21.7997 22.1957 21.3287 22.4843C20.4871 23 19.3414 23 17.05 23H6.95C4.6586 23 3.5129 23 2.67126 22.4843C2.20031 22.1957 1.80435 21.7997 1.51576 21.3288C1 20.4871 1 19.3414 1 17.05V8.79168V8.79168Z" stroke="#1C943F" stroke-width="2"/>
<path d="M6.5 1V4.66667" stroke="#1C943F" stroke-width="2" stroke-linecap="round"/>
<path d="M17.5 1V4.66667" stroke="#1C943F" stroke-width="2" stroke-linecap="round"/>
<path d="M10.4819 10.5619C10.9442 9.17253 11.1754 8.47785 11.5207 8.28927C11.8194 8.12617 12.1806 8.12617 12.4793 8.28927C12.8246 8.47785 13.0558 9.17253 13.5181 10.5619L13.6525 10.9656H13.9791C15.4996 10.9656 16.2598 10.9656 16.5489 11.2389C16.7989 11.4752 16.9098 11.8234 16.8427 12.1607C16.765 12.551 16.1449 12.9908 14.9048 13.8706L14.6738 14.0344L14.7825 14.3611C15.2516 15.7708 15.4862 16.4757 15.3209 16.8346C15.178 17.1451 14.8865 17.361 14.5479 17.4072C14.1563 17.4607 13.5504 17.0309 12.3386 16.1713L12 15.9311L11.6614 16.1713C10.4496 17.0309 9.84371 17.4607 9.45215 17.4072C9.11355 17.361 8.82201 17.1451 8.6791 16.8346C8.51383 16.4757 8.7484 15.7708 9.21754 14.3611L9.32624 14.0344L9.09521 13.8706C7.85505 12.9908 7.23497 12.551 7.15732 12.1607C7.09019 11.8234 7.20114 11.4752 7.45106 11.2389C7.74019 10.9656 8.50044 10.9656 10.0209 10.9656H10.3475L10.4819 10.5619Z" fill="#1C943F"/>
</svg>
