<svg width="25" height="21" viewBox="0 0 25 21" fill="none" xmlns="http://www.w3.org/2000/svg">
<path d="M23.1818 7.15V7.15C23.1818 6.12579 23.1818 5.61368 23.034 5.20316C22.7816 4.50212 22.2297 3.95019 21.5287 3.6978C21.1181 3.55 20.606 3.55 19.5818 3.55H10.1882C10.1857 3.55 10.1844 3.55 10.1833 3.54971C10.1825 3.54951 10.1817 3.54921 10.1809 3.54882C10.1799 3.54825 10.1789 3.54741 10.1771 3.54574L9.36552 2.81533C8.90125 2.39748 8.66911 2.18855 8.40122 2.04533C8.21788 1.94731 8.02303 1.87253 7.82118 1.82275C7.52625 1.75 7.21394 1.75 6.58932 1.75H5.33182C3.78992 1.75 3.01896 1.75 2.44318 2.07842C2.05427 2.30025 1.73207 2.62245 1.51024 3.01135C1.18182 3.58714 1.18182 4.35809 1.18182 5.9V7.15M23.1818 7.15V15.6C23.1818 17.1419 23.1818 17.9129 22.8534 18.4886C22.6316 18.8776 22.3094 19.1998 21.9205 19.4216C21.3447 19.75 20.5737 19.75 19.0318 19.75H5.33182C3.78992 19.75 3.01896 19.75 2.44318 19.4216C2.05427 19.1998 1.73207 18.8776 1.51024 18.4886C1.18182 17.9129 1.18182 17.1419 1.18182 15.6V7.15M23.1818 7.15H1.18182" stroke="#1C943F" stroke-width="2" stroke-linecap="round" stroke-linejoin="round"/>
</svg>
