<svg width="16" height="16" viewBox="0 0 16 16" fill="none" xmlns="http://www.w3.org/2000/svg">
<path d="M2.03433 10.3964L1.15089 13.6482C1.03751 14.0655 0.980822 14.2742 1.00584 14.424C1.05466 14.7163 1.28372 14.9453 1.57604 14.9942C1.72581 15.0192 1.93447 14.9625 2.35179 14.8491L5.60362 13.9657M2.03433 10.3964L9.51283 2.91788M2.03433 10.3964L5.60362 13.9657M9.51283 2.91788L13.0821 6.48717M9.51283 2.91788L10.6217 1.80897C10.9963 1.43442 11.1836 1.24714 11.3852 1.14638C11.7758 0.951207 12.2355 0.951207 12.6261 1.14638C12.8278 1.24714 13.015 1.43442 13.3896 1.80897L14.191 2.61042C14.5656 2.98496 14.7529 3.17224 14.8536 3.3739C15.0488 3.7645 15.0488 4.22417 14.8536 4.61476C14.7529 4.81643 14.5656 5.0037 14.191 5.37825L13.0821 6.48717M13.0821 6.48717L5.60362 13.9657" stroke="#1C943F" stroke-width="1.5" stroke-linecap="round" stroke-linejoin="round"/>
</svg>
