<svg width="20" height="30" viewBox="0 0 20 30" fill="none" xmlns="http://www.w3.org/2000/svg">
<path d="M16.7501 9.46533C18.1504 10.1705 19 11.0967 19 12.1111C19 14.3203 14.9705 16.1111 10 16.1111C5.02951 16.1111 1 14.3203 1 12.1111C1 11.0967 1.84965 10.1705 3.24992 9.46533" stroke="#E1524B" stroke-width="2" stroke-linecap="round"/>
<path d="M10.0002 1V9.88889M10.0002 9.88889L13.6002 6.33333M10.0002 9.88889L6.40026 6.33333" stroke="#E1524B" stroke-width="2" stroke-linecap="round" stroke-linejoin="round"/>
<path d="M19 11.6667L17.3637 25.542C17.2 27.6667 13.6001 29 10.0001 29C6.40017 29 2.80022 27.6667 2.63659 25.542L1.00025 11.6667" stroke="#E1524B" stroke-width="2"/>
<path d="M8.00012 20L12.0001 24M12.0001 20L8.00012 24" stroke="#E1524B" stroke-width="2" stroke-linecap="round" stroke-linejoin="round"/>
</svg>
