<svg width="28" height="22" viewBox="0 0 28 22" fill="none" xmlns="http://www.w3.org/2000/svg">
<path d="M1 18.668C2.03902 17.0491 4.08585 15.1818 8 15.1818C11.0928 15.1818 13.0197 16.3477 14.2048 17.6356C14.5377 17.9974 14.7042 18.1783 14.74 18.9011C14.7633 19.3737 14.3859 20.2341 14.0222 20.5369C13.4661 21 13.0255 21 12.1442 21H5" stroke="#1C943F" stroke-width="2"/>
<circle cx="7.99995" cy="8.63636" r="3.63636" stroke="#1C943F" stroke-width="2"/>
<path d="M12 21H23M14.4594 17C15.6627 15.9879 17.4283 15.1818 20 15.1818C23.5781 15.1818 25.5957 16.7422 26.7095 18.2469" stroke="#1C943F" stroke-width="2"/>
<circle cx="20" cy="8.63636" r="3.63636" stroke="#1C943F" stroke-width="2"/>
<rect x="1" y="1" width="26" height="20" rx="3" stroke="#1C943F" stroke-width="2"/>
</svg>
