<svg width="20" height="24" viewBox="0 0 20 24" fill="none" xmlns="http://www.w3.org/2000/svg">
<path d="M13 7H13.9C15.8641 7 16.8461 7 17.5675 7.44208C17.9712 7.68945 18.3106 8.02884 18.5579 8.4325C19 9.15391 19 10.1359 19 12.1V17.9C19 19.8641 19 20.8461 18.5579 21.5675C18.3106 21.9712 17.9712 22.3106 17.5675 22.5579C16.8461 23 15.8641 23 13.9 23H6.1C4.13594 23 3.15391 23 2.4325 22.5579C2.02884 22.3106 1.68945 21.9712 1.44208 21.5675C1 20.8461 1 19.8641 1 17.9V12.1C1 10.1359 1 9.15391 1.44208 8.4325C1.68945 8.02884 2.02884 7.68945 2.4325 7.44208C3.15391 7 4.13594 7 6.1 7H7" stroke="#1C943F" stroke-width="2"/>
<path d="M6 11.735L8.64 14.5497C9.16375 15.1081 9.42562 15.3873 9.73589 15.4667C9.9095 15.5111 10.0905 15.5111 10.2641 15.4667C10.5744 15.3873 10.8363 15.1081 11.36 14.5497L14 11.735M10 15.1467V1.5" stroke="#1C943F" stroke-width="2" stroke-linecap="round"/>
</svg>
