<svg width="24" height="24" viewBox="0 0 24 24" fill="none" xmlns="http://www.w3.org/2000/svg">
<path d="M1 8.79159C1 6.49463 1 5.34615 1.51576 4.50451C1.80435 4.03356 2.20031 3.63761 2.67126 3.34901C3.5129 2.83325 4.6586 2.83325 6.95 2.83325H17.05C19.3414 2.83325 20.4871 2.83325 21.3287 3.34901C21.7997 3.63761 22.1956 4.03356 22.4842 4.50451C23 5.34615 23 6.49463 23 8.79159V8.79159V17.0499C23 19.3413 23 20.487 22.4842 21.3287C22.1956 21.7996 21.7997 22.1956 21.3287 22.4842C20.4871 22.9999 19.3414 22.9999 17.05 22.9999H6.95C4.6586 22.9999 3.5129 22.9999 2.67126 22.4842C2.20031 22.1956 1.80435 21.7996 1.51576 21.3287C1 20.487 1 19.3413 1 17.0499V8.79159V8.79159Z" stroke="#1C943F" stroke-width="2"/>
<path d="M6.5 1V4.66667" stroke="#1C943F" stroke-width="2" stroke-linecap="round"/>
<path d="M17.5 1V4.66667" stroke="#1C943F" stroke-width="2" stroke-linecap="round"/>
</svg>
