<svg width="24" height="24" viewBox="0 0 24 24" fill="none" xmlns="http://www.w3.org/2000/svg">
<path d="M2.62538 15.7657L1.23711 20.8758C1.05895 21.5315 0.969863 21.8594 1.00917 22.0948C1.0859 22.5541 1.44585 22.9141 1.90521 22.9908C2.14056 23.0301 2.46845 22.9411 3.12425 22.7629L8.23425 21.3746M2.62538 15.7657L14.3773 4.01382M2.62538 15.7657L8.23425 21.3746M14.3773 4.01382L19.9862 9.62269M14.3773 4.01382L16.1199 2.27124C16.7085 1.68266 17.0028 1.38837 17.3197 1.23002C17.9335 0.923326 18.6558 0.923326 19.2696 1.23002C19.5865 1.38837 19.8808 1.68266 20.4693 2.27124L21.7288 3.53065C22.3173 4.11923 22.6116 4.41352 22.77 4.73042C23.0767 5.34421 23.0767 6.06655 22.77 6.68035C22.6116 6.99725 22.3173 7.29153 21.7288 7.88011L19.9862 9.62269M19.9862 9.62269L8.23425 21.3746" stroke="#1C943F" stroke-width="2" stroke-linecap="round" stroke-linejoin="round"/>
</svg>
