<svg width="22" height="26" viewBox="0 0 22 26" fill="none" xmlns="http://www.w3.org/2000/svg">
<path d="M8.80537 3.72727H6.08099C4.44428 3.72727 3.62592 3.72727 3.02475 4.09567C2.68836 4.30181 2.40553 4.58464 2.19939 4.92103C1.83099 5.5222 1.83099 6.34056 1.83099 7.97728V20.75C1.83099 22.3867 1.83099 23.2051 2.19939 23.8062C2.40553 24.1426 2.68836 24.4255 3.02475 24.6316C3.62592 25 4.44428 25 6.081 25H16.1712C17.8108 25 18.6305 25 19.2322 24.6307C19.5689 24.4241 19.8518 24.1407 20.0578 23.8036C20.4259 23.2012 20.4244 22.3814 20.4212 20.7419L20.3969 7.96919C20.3938 6.33529 20.3923 5.51834 20.0236 4.91839C19.8173 4.58267 19.5346 4.30047 19.1984 4.0948C18.5978 3.72727 17.7808 3.72727 16.1469 3.72727H13.4145M8.80537 3.72727H13.4145M8.80537 3.72727C8.80537 3.72727 8.80537 1 11.1302 1C13.455 1 13.4145 3.72727 13.4145 3.72727" stroke="#8D8D8D" stroke-width="2"/>
<path d="M14.631 19.5455H7.62942C6.98342 19.5455 6.66043 19.5455 6.33463 19.199C6.19963 19.0554 6.04855 18.7026 6.03774 18.5058C6.01165 18.0309 6.16032 17.8749 6.45764 17.563C7.30087 16.6783 8.73382 15.8318 11.1302 15.8318C13.5266 15.8318 14.9596 16.6783 15.8028 17.563C16.1001 17.8749 16.2488 18.0309 16.2227 18.5058C16.2119 18.7026 16.0608 19.0554 15.9258 19.199C15.6 19.5455 15.277 19.5455 14.631 19.5455Z" fill="#8D8D8D"/>
<ellipse cx="11.1302" cy="11.4217" rx="2.90599" ry="2.7853" fill="#8D8D8D"/>
</svg>
