<svg width="24" height="24" viewBox="0 0 24 24" fill="none" xmlns="http://www.w3.org/2000/svg">
<rect x="7.28571" y="2.04762" width="5.2381" height="20.9524" rx="1.6" stroke="#1C943F" stroke-width="2"/>
<path d="M7.28571 6V3.72C7.28571 2.6725 7.28571 2.14875 7.04994 1.764C6.91801 1.54871 6.737 1.3677 6.52171 1.23578C6.13696 1 5.61321 1 4.56572 1H3.72C2.6725 1 2.14875 1 1.764 1.23578C1.54871 1.3677 1.3677 1.54871 1.23578 1.764C1 2.14875 1 2.6725 1 3.72V6M7.28571 6H1M7.28571 6V18M1 6V18M7.28571 18V20.28C7.28571 21.3275 7.28571 21.8512 7.04994 22.236C6.91801 22.4513 6.737 22.6323 6.52171 22.7642C6.13696 23 5.61321 23 4.56571 23H3.72C2.6725 23 2.14875 23 1.764 22.7642C1.54871 22.6323 1.3677 22.4513 1.23578 22.236C1 21.8512 1 21.3275 1 20.28V18M7.28571 18H1" stroke="#1C943F" stroke-width="2"/>
<path d="M16.7143 6.2381V4.76762C16.7143 3.72012 16.7143 3.19637 16.9501 2.81162C17.082 2.59633 17.263 2.41532 17.4783 2.28339C17.863 2.04762 18.3868 2.04762 19.4343 2.04762H20.28C21.3275 2.04762 21.8513 2.04762 22.236 2.28339C22.4513 2.41532 22.6323 2.59633 22.7642 2.81162C23 3.19637 23 3.72012 23 4.76762V6.2381M16.7143 6.2381H23M16.7143 6.2381V18.8095M23 6.2381V18.8095M23 18.8095V20.28C23 21.3275 23 21.8512 22.7642 22.236C22.6323 22.4513 22.4513 22.6323 22.236 22.7642C21.8513 23 21.3275 23 20.28 23H19.4343C18.3868 23 17.863 23 17.4783 22.7642C17.263 22.6323 17.082 22.4513 16.9501 22.236C16.7143 21.8512 16.7143 21.3275 16.7143 20.28V18.8095M23 18.8095H16.7143" stroke="#1C943F" stroke-width="2"/>
</svg>
