<svg width="24" height="24" viewBox="0 0 24 24" preserveAspectRatio="xMidYMid meet" fill="none" xmlns="http://www.w3.org/2000/svg">
<path d="M1 8.79171C1 6.49475 1 5.34627 1.51576 4.50463C1.80435 4.03368 2.20031 3.63773 2.67126 3.34913C3.5129 2.83337 4.6586 2.83337 6.95 2.83337H17.05C19.3414 2.83337 20.4871 2.83337 21.3287 3.34913C21.7997 3.63773 22.1956 4.03368 22.4842 4.50463C23 5.34627 23 6.49475 23 8.79171V8.79171V17.05C23 19.3414 23 20.4871 22.4842 21.3288C22.1956 21.7997 21.7997 22.1957 21.3287 22.4843C20.4871 23 19.3414 23 17.05 23H6.95C4.6586 23 3.5129 23 2.67126 22.4843C2.20031 22.1957 1.80435 21.7997 1.51576 21.3288C1 20.4871 1 19.3414 1 17.05V8.79171V8.79171Z" stroke="#8D8D8D" stroke-width="2"/>
<path d="M6.5 1V4.66667" stroke="#8D8D8D" stroke-width="2" stroke-linecap="round"/>
<path d="M17.5 1V4.66667" stroke="#8D8D8D" stroke-width="2" stroke-linecap="round"/>
</svg>
