<svg width="26" height="23" viewBox="0 0 26 23" fill="none" xmlns="http://www.w3.org/2000/svg">
<path d="M13 21.5V4.28958M13 21.5C13.8038 21.5 14.4845 21.1864 15.1818 20.9042C16.9389 20.193 18.696 20.8103 22.1624 21.0776C23.1537 21.1541 23.6494 21.1923 24.0775 20.9721C24.3402 20.8369 24.5926 20.6033 24.7475 20.3517C25 19.9418 25 19.4103 25 18.3474V4.84612C25 4.19822 25 3.87427 24.8426 3.50138C24.761 3.30803 24.5533 3.00177 24.4038 2.85446C24.1155 2.57037 23.9049 2.48656 23.4836 2.31893C19.8068 0.855867 13.9454 1.25994 13 4.28958M13 21.5C12.1962 21.5 11.5155 21.1864 10.8182 20.9042C9.06109 20.193 7.30401 20.8103 3.83756 21.0776C2.84628 21.1541 2.35064 21.1923 1.92246 20.9721C1.65978 20.8369 1.40739 20.6033 1.25249 20.3517C1 19.9418 1 19.4103 1 18.3474V4.84612C1 4.19822 1 3.87427 1.15737 3.50137C1.23897 3.30802 1.44672 3.00176 1.5962 2.85446C1.88449 2.57037 2.09513 2.48655 2.5164 2.31892C6.19319 0.855864 12.0546 1.25994 13 4.28958" stroke="#1C943F" stroke-width="2" stroke-linecap="round" stroke-linejoin="round"/>
</svg>
