<svg width="22" height="21" viewBox="0 0 22 21" fill="none" xmlns="http://www.w3.org/2000/svg">
<path d="M1.8815 9.13904C1.82022 9.68791 2.21549 10.1825 2.76436 10.2438C3.31324 10.3051 3.80787 9.90984 3.86915 9.36096L2.87532 9.25L1.8815 9.13904ZM5.61415 15.2745C5.26465 14.8469 4.63466 14.7835 4.20703 15.133C3.7794 15.4825 3.71607 16.1125 4.06557 16.5402L4.83986 15.9073L5.61415 15.2745ZM2.20732 9.01128L1.26106 9.33469L1.26106 9.33469L2.20732 9.01128ZM1.94626 5.15535C1.76765 4.63274 1.1992 4.35388 0.676593 4.5325C0.153988 4.71111 -0.124873 5.27956 0.05374 5.80216L1 5.47876L1.94626 5.15535ZM3.51384 9.43449L2.94306 8.61339L2.94306 8.61339L3.51384 9.43449ZM7.39607 7.95368C7.84956 7.63845 7.96163 7.01528 7.6464 6.5618C7.33117 6.10832 6.708 5.99624 6.25452 6.31148L6.82529 7.13258L7.39607 7.95368ZM2.55416 9.70816L1.99774 10.5391L1.99774 10.5391L2.55416 9.70816ZM2.81805 9.79365L2.85537 8.79434L2.85536 8.79434L2.81805 9.79365ZM21 10.25H20C20 14.6589 16.3874 18.25 11.9099 18.25V19.25V20.25C17.4731 20.25 22 15.7822 22 10.25H21ZM11.9099 1.25V2.25C16.3874 2.25 20 5.84109 20 10.25H21H22C22 4.71779 17.4731 0.25 11.9099 0.25V1.25ZM2.87532 9.25L3.86915 9.36096C4.31481 5.36943 7.73811 2.25 11.9099 2.25V1.25V0.25C6.72389 0.25 2.44069 4.13067 1.8815 9.13904L2.87532 9.25ZM11.9099 19.25V18.25C9.36506 18.25 7.0975 17.0894 5.61415 15.2745L4.83986 15.9073L4.06557 16.5402C5.91516 18.8032 8.74366 20.25 11.9099 20.25V19.25ZM2.20732 9.01128L3.15358 8.68787L1.94626 5.15535L1 5.47876L0.05374 5.80216L1.26106 9.33469L2.20732 9.01128ZM3.51384 9.43449L4.08462 10.2556L7.39607 7.95368L6.82529 7.13258L6.25452 6.31148L2.94306 8.61339L3.51384 9.43449ZM2.20732 9.01128L1.26106 9.33469C1.3226 9.51472 1.39283 9.72421 1.47186 9.89498C1.5551 10.0748 1.70427 10.3425 1.99774 10.5391L2.55416 9.70816L3.11058 8.87726C3.18488 8.92702 3.23465 8.9819 3.26369 9.02114C3.28915 9.05555 3.29575 9.07407 3.2869 9.05496C3.27816 9.03606 3.26337 9.00045 3.23934 8.93441C3.21545 8.86876 3.18884 8.79103 3.15358 8.68787L2.20732 9.01128ZM3.51384 9.43449L2.94306 8.61339C2.85308 8.67594 2.78507 8.72317 2.72644 8.76226C2.66747 8.80157 2.63382 8.82195 2.61485 8.83242C2.59567 8.84301 2.61092 8.83251 2.65053 8.82011C2.69575 8.80596 2.76707 8.79105 2.85537 8.79434L2.81805 9.79365L2.78074 10.7929C3.13154 10.806 3.4086 10.6788 3.58164 10.5832C3.74635 10.4923 3.92719 10.365 4.08462 10.2556L3.51384 9.43449ZM2.55416 9.70816L1.99774 10.5391C2.23049 10.6949 2.50174 10.7825 2.78075 10.7929L2.81805 9.79365L2.85536 8.79434C2.94576 8.79772 3.03417 8.82609 3.11058 8.87726L2.55416 9.70816Z" fill="#1C943F"/>
</svg>
