<svg width="20" height="27" viewBox="0 0 20 27" fill="none" xmlns="http://www.w3.org/2000/svg">
<path d="M13 9.5H13.9C15.8641 9.5 16.8461 9.5 17.5675 9.94208C17.9712 10.1894 18.3106 10.5288 18.5579 10.9325C19 11.6539 19 12.6359 19 14.6V20.4C19 22.3641 19 23.3461 18.5579 24.0675C18.3106 24.4712 17.9712 24.8106 17.5675 25.0579C16.8461 25.5 15.8641 25.5 13.9 25.5H6.1C4.13594 25.5 3.15391 25.5 2.4325 25.0579C2.02884 24.8106 1.68945 24.4712 1.44208 24.0675C1 23.3461 1 22.3641 1 20.4V14.6C1 12.6359 1 11.6539 1.44208 10.9325C1.68945 10.5288 2.02884 10.1894 2.4325 9.94208C3.15391 9.5 4.13594 9.5 6.1 9.5H7" stroke="#1C943F" stroke-width="2"/>
<path d="M6 5.26497L8.64 2.45033C9.16375 1.89194 9.42562 1.61274 9.73589 1.53333C9.9095 1.48889 10.0905 1.48889 10.2641 1.53333C10.5744 1.61274 10.8363 1.89194 11.36 2.45033L14 5.26497M10 1.85329V15.5" stroke="#1C943F" stroke-width="2" stroke-linecap="round"/>
</svg>
