<svg width="24" height="20" viewBox="0 0 24 20" fill="none" xmlns="http://www.w3.org/2000/svg">
<path d="M14.5988 19H4.31032C3.35396 19 2.87577 19 2.32697 18.559C1.95814 18.2626 1.57575 17.4556 1.5799 16.9825C1.58608 16.2784 1.77677 16.0454 2.15814 15.5792C3.45542 13.9937 5.68542 12.4545 9.45456 12.4545C13.2237 12.4545 15.4537 13.9937 16.751 15.5792C17.1324 16.0454 17.323 16.2784 17.3292 16.9825C17.3334 17.4556 16.951 18.2626 16.5821 18.559C16.0333 19 15.5552 19 14.5988 19Z" stroke="#1C943F" stroke-width="2" stroke-linecap="round"/>
<circle cx="9.45453" cy="5.09091" r="4.09091" stroke="#1C943F" stroke-width="2"/>
<path d="M22.4546 10H16.4546M16.4546 10L19.4546 7M16.4546 10L19.4546 13" stroke="#1C943F" stroke-width="2" stroke-linecap="round" stroke-linejoin="round"/>
</svg>
