<svg width="24" height="24" viewBox="0 0 24 24" fill="none" xmlns="http://www.w3.org/2000/svg">
<path d="M17 23H4.4C3.09063 23 2.43594 23 1.955 22.7053C1.68589 22.5404 1.45963 22.3141 1.29472 22.045C1 21.5641 1 20.9094 1 19.6V4.4C1 3.09063 1 2.43594 1.29472 1.955C1.45963 1.68589 1.68589 1.45963 1.955 1.29472C2.43594 1 3.09063 1 4.4 1H13.6C14.9094 1 15.5641 1 16.045 1.29472C16.3141 1.45963 16.5404 1.68589 16.7053 1.955C17 2.43594 17 3.09063 17 4.4V7" stroke="#1C943F" stroke-width="2"/>
<rect x="14" y="7" width="9" height="16" rx="1.7" stroke="#1C943F" stroke-width="2"/>
<path d="M14 10.55C14 9.7579 14 9.36185 14.1294 9.04944C14.3019 8.63289 14.6329 8.30194 15.0494 8.1294C15.3618 8 15.7579 8 16.55 8H20.45C21.2421 8 21.6382 8 21.9506 8.1294C22.3671 8.30194 22.6981 8.63289 22.8706 9.04944C23 9.36185 23 9.7579 23 10.55V19.45C23 20.2421 23 20.6382 22.8706 20.9506C22.6981 21.3671 22.3671 21.6981 21.9506 21.8706C21.6382 22 21.2421 22 20.45 22H16.55C15.7579 22 15.3618 22 15.0494 21.8706C14.6329 21.6981 14.3019 21.3671 14.1294 20.9506C14 20.6382 14 20.2421 14 19.45V10.55Z" stroke="#1C943F" stroke-width="2"/>
<path d="M6 20.5H12" stroke="#1C943F" stroke-linecap="round"/>
</svg>
