<svg width="26" height="26" viewBox="0 0 26 26" fill="none" xmlns="http://www.w3.org/2000/svg">
<path d="M7.71429 4.58824C7.1259 3.95082 6.70128 2.82846 6.42183 1.85338C6.32764 1.52476 5.67236 1.52476 5.57818 1.85338C5.29872 2.82846 4.8741 3.95082 4.28571 4.58824C3.63441 5.29382 2.41962 5.79825 1.44924 6.11116C1.13706 6.21182 1.13707 6.78818 1.44924 6.88884C2.41962 7.20175 3.63441 7.70618 4.28571 8.41177C4.8741 9.04918 5.29872 10.1715 5.57817 11.1466C5.67236 11.4752 6.32764 11.4752 6.42183 11.1466C6.70128 10.1715 7.1259 9.04918 7.71429 8.41177C8.36559 7.70618 9.58038 7.20175 10.5508 6.88884C10.8629 6.78818 10.8629 6.21182 10.5508 6.11116C9.58038 5.79825 8.3656 5.29382 7.71429 4.58824Z" fill="#1C943F"/>
<circle cx="16.3" cy="16.3" r="6.3" stroke="#1C943F" stroke-width="2"/>
<path d="M22.9393 25.0607C23.5251 25.6464 24.4749 25.6464 25.0607 25.0607C25.6465 24.4749 25.6465 23.5251 25.0607 22.9393L24 24L22.9393 25.0607ZM20.5 20.5L19.4394 21.5607L22.9393 25.0607L24 24L25.0607 22.9393L21.5607 19.4393L20.5 20.5Z" fill="#1C943F"/>
</svg>
