<svg width="22" height="24" viewBox="0 0 22 24" fill="none" xmlns="http://www.w3.org/2000/svg">
<path d="M14.1429 8.47059C12.9773 7.19904 12.1622 4.8822 11.6547 2.99259L11.6547 2.99256C11.3899 2.00664 11.2575 1.51369 11.1499 1.45161C11.0492 1.39346 10.9508 1.39346 10.8501 1.45161C10.7425 1.51369 10.6101 2.00665 10.3453 2.99259C9.83777 4.8822 9.02273 7.19904 7.85714 8.47059C6.58302 9.86054 4.13269 10.8277 2.30561 11.3936C1.54055 11.6305 1.15802 11.749 1.09952 11.854C1.04472 11.9524 1.04472 12.0476 1.09952 12.146C1.15802 12.251 1.54055 12.3695 2.30561 12.6064C4.1327 13.1723 6.58302 14.1395 7.85714 15.5294C9.02273 16.801 9.83777 19.1178 10.3453 21.0074C10.6101 21.9933 10.7425 22.4863 10.8501 22.5484C10.9508 22.6065 11.0492 22.6065 11.1499 22.5484C11.2575 22.4863 11.3899 21.9934 11.6547 21.0074L11.6547 21.0074C12.1622 19.1178 12.9773 16.801 14.1429 15.5294C15.417 14.1395 17.8673 13.1723 19.6944 12.6064C20.4595 12.3695 20.842 12.251 20.9005 12.146C20.9553 12.0476 20.9553 11.9524 20.9005 11.854C20.842 11.749 20.4595 11.6305 19.6944 11.3936C17.8673 10.8277 15.417 9.86054 14.1429 8.47059Z" stroke="#1C943F" stroke-width="2" stroke-linecap="round"/>
</svg>
