<svg width="23" height="20" viewBox="0 0 23 20" fill="none" xmlns="http://www.w3.org/2000/svg">
<path d="M14.1442 19H3.85576C2.8994 19 2.42121 19 1.87242 18.559C1.50358 18.2626 1.12119 17.4557 1.12534 16.9825C1.13152 16.2785 1.32221 16.0454 1.70358 15.5793C3.00086 13.9937 5.23087 12.4546 9 12.4546C12.7691 12.4546 14.9991 13.9937 16.2964 15.5793C16.6778 16.0454 16.8685 16.2785 16.8747 16.9825C16.8788 17.4557 16.4964 18.2626 16.1276 18.559C15.5788 19 15.1006 19 14.1442 19Z" stroke="#8D8D8D" stroke-width="2" stroke-linecap="round"/>
<circle cx="8.99997" cy="5.09091" r="4.09091" stroke="#8D8D8D" stroke-width="2"/>
<path d="M16 10H22M22 10L19 7M22 10L19 13" stroke="#8D8D8D" stroke-width="2" stroke-linecap="round" stroke-linejoin="round"/>
</svg>
