<svg width="25" height="23" viewBox="0 0 25 23" fill="none" xmlns="http://www.w3.org/2000/svg">
<path d="M12.5455 3.20009C12.5387 3.17429 12.1271 1.66667 10.0455 1.66667C7.51996 1.66667 7.31077 3.99551 7.30755 4.19624C7.30744 4.2026 7.30262 4.20663 7.29611 4.20548C7.10891 4.17262 4.64819 3.78117 3.64073 5.71832C2.63892 7.64459 3.55309 9.11035 3.63498 9.23489M12.5455 3.20009L12.5456 3.20159V20.3209L12.5454 20.3231M12.5455 3.20009C12.5523 3.17429 12.9638 1.66667 15.0455 1.66667C17.571 1.66667 17.7802 3.99551 17.7834 4.19624C17.7835 4.2026 17.7883 4.20663 17.7948 4.20548C17.982 4.17262 20.4428 3.78117 21.4502 5.71832C22.452 7.64459 21.5379 9.11035 21.456 9.23489C21.4526 9.24001 21.4541 9.24536 21.4597 9.24818C21.6117 9.32498 23.5455 10.3496 23.5455 12.7686C23.5455 15.196 21.4553 16.2912 20.9375 16.2901C20.9362 16.2901 20.9351 16.2903 20.934 16.291C20.9298 16.2935 20.9283 16.2981 20.9304 16.3027M3.63498 9.23489C3.63834 9.24001 3.63685 9.24536 3.63127 9.24818C3.47928 9.32498 1.54547 10.3496 1.54547 12.7686C1.54547 15.1988 3.98507 16.2217 4.15521 16.2901C4.16069 16.2923 4.16287 16.2974 4.16055 16.3027C4.11314 16.4104 3.66783 17.4725 4.16454 18.3082C4.79892 19.3755 6.13371 19.3227 6.25146 19.3159C6.25676 19.3156 6.2605 19.3187 6.26162 19.3237M3.63498 9.23489C4.41556 10.3151 5.16968 10.6849 7.30755 10.7543M6.26162 19.3237C6.29727 19.4814 6.87141 21.8333 9.40268 21.8333C11.9926 21.8333 12.5337 20.356 12.5454 20.3231M6.26162 19.3237C5.89792 17.9241 6.41281 16.5285 7.54547 15.8015M12.5454 20.3231C12.5571 20.356 13.0983 21.8333 15.6883 21.8333C18.2195 21.8333 18.7937 19.4814 18.8293 19.3237C18.8304 19.3187 18.8342 19.3156 18.8395 19.3159C18.9572 19.3227 20.292 19.3755 20.9264 18.3082C21.4231 17.4725 20.9778 16.4104 20.9304 16.3027M20.9304 16.3027C17.7837 16.7974 16.7361 14.783 16.7361 13.2722" stroke="#1C943F" stroke-width="2" stroke-linecap="round"/>
</svg>
