<svg width="26" height="24" viewBox="0 0 26 24" fill="none" xmlns="http://www.w3.org/2000/svg">
<path d="M11.0548 4.78294C11.7696 2.58502 12.127 1.48606 12.6638 1.19121C13.1279 0.936264 13.6903 0.936264 14.1545 1.19121C14.6913 1.48606 15.0487 2.58502 15.7634 4.78294L16.8501 8.12425C16.8618 8.16038 16.8677 8.17844 16.8787 8.19181C16.8885 8.20361 16.9011 8.21275 16.9154 8.21839C16.9315 8.22478 16.9505 8.22478 16.9885 8.22478L20.5049 8.22478C22.818 8.22478 23.9745 8.22478 24.421 8.64374C24.8071 9.006 24.9809 9.54042 24.8817 10.0602C24.7669 10.6614 23.8312 11.3406 21.9599 12.699L19.1152 14.7641C19.0844 14.7864 19.069 14.7976 19.0597 14.8122C19.0515 14.8251 19.0467 14.8399 19.0457 14.8552C19.0446 14.8725 19.0505 14.8906 19.0623 14.9267L20.1489 18.268C20.8636 20.466 21.221 21.5649 20.9602 22.1187C20.7347 22.5975 20.2797 22.9278 19.7542 22.9942C19.1465 23.0709 18.2108 22.3917 16.3395 21.0333L13.4947 18.9682C13.4639 18.9459 13.4486 18.9347 13.4318 18.9304C13.4169 18.9266 13.4013 18.9266 13.3865 18.9304C13.3697 18.9347 13.3543 18.9459 13.3235 18.9682L10.4787 21.0333C8.60743 22.3917 7.67178 23.0709 7.06404 22.9942C6.53855 22.9278 6.08355 22.5975 5.85803 22.1187C5.59721 21.5649 5.95459 20.466 6.66937 18.268L7.75598 14.9267C7.76773 14.8906 7.77361 14.8725 7.77252 14.8552C7.77155 14.8399 7.76674 14.8251 7.75853 14.8122C7.74923 14.7976 7.73385 14.7864 7.70308 14.7641L4.8583 12.699C2.98699 11.3406 2.05134 10.6614 1.93655 10.0602C1.8373 9.54042 2.0111 9.006 2.39721 8.64374C2.84375 8.22478 4.00029 8.22478 6.31335 8.22478L9.8297 8.22478C9.86772 8.22478 9.88673 8.22478 9.90287 8.21839C9.91713 8.21275 9.92972 8.20361 9.9395 8.19181C9.95056 8.17844 9.95644 8.16038 9.96819 8.12425L11.0548 4.78294Z" stroke="#1C943F" stroke-width="2"/>
</svg>
