<svg width="24" height="24" viewBox="0 0 24 24" fill="none" xmlns="http://www.w3.org/2000/svg">
<path d="M16.5 3V3C15.6605 3 15.2407 3 14.9159 3.15362C14.5813 3.31188 14.3119 3.58128 14.1536 3.91591C14 4.24071 14 4.66047 14 5.5L14 17.005C14 17.7455 14 18.1157 14.0844 18.4639C14.1575 18.7657 14.2771 19.0543 14.4387 19.3194C14.6253 19.6253 14.8871 19.8871 15.4107 20.4107V20.4107C15.9702 20.9702 16.25 21.25 16.5731 21.3534C16.8508 21.4423 17.1492 21.4423 17.4269 21.3534C17.75 21.25 18.0298 20.9702 18.5893 20.4107V20.4107C19.1129 19.8871 19.3747 19.6253 19.5613 19.3194C19.7229 19.0543 19.8425 18.7657 19.9156 18.4639C20 18.1157 20 17.7455 20 17.005V5M16.5 3V1.17C16.5 1.10453 16.5 1.0718 16.5147 1.04775C16.523 1.03429 16.5343 1.02298 16.5478 1.01474C16.5718 1 16.6045 1 16.67 1H17.33C17.3955 1 17.4282 1 17.4522 1.01474C17.4657 1.02298 17.477 1.03429 17.4853 1.04775C17.5 1.0718 17.5 1.10453 17.5 1.17V3M16.5 3H17.5M17.5 3H18C18.3717 3 18.5576 3 18.7121 3.03074C19.3468 3.15699 19.843 3.65315 19.9693 4.28786C20 4.44241 20 4.62828 20 5V5M20 5H20.29C21.1411 5 21.5666 5 21.8792 5.19157C22.0542 5.29876 22.2012 5.44583 22.3084 5.62075C22.5 5.93336 22.5 6.35891 22.5 7.21V12" stroke="#1C943F" stroke-width="2" stroke-linecap="round" stroke-linejoin="round"/>
<rect x="1" y="1" width="8" height="22" rx="2" stroke="#1C943F" stroke-width="2"/>
<path d="M9 5H6" stroke="#1C943F" stroke-width="1.2" stroke-linecap="round"/>
<path d="M9 11H6" stroke="#1C943F" stroke-width="1.2" stroke-linecap="round"/>
<path d="M9 17H6" stroke="#1C943F" stroke-width="1.2" stroke-linecap="round"/>
<path d="M9 14H7" stroke="#1C943F" stroke-width="1.2" stroke-linecap="round"/>
<path d="M9 8H7" stroke="#1C943F" stroke-width="1.2" stroke-linecap="round"/>
<path d="M17 23V21.5" stroke="#1C943F" stroke-width="2" stroke-linecap="round"/>
</svg>
