<svg width="25" height="23" viewBox="0 0 25 23" fill="none" xmlns="http://www.w3.org/2000/svg">
<path d="M3.92561 1.03083C7.24245 1.03084 6.40082 5.57231 6.20204 7.3216M3.92561 1.03083C2.72291 1.03083 1 2.0793 1 4.17622C1 6.23558 2.00347 7.28369 3.02492 7.81713C3.04668 7.8285 3.05757 7.83418 3.06986 7.83706C3.07704 7.83875 3.08485 7.83967 3.09223 7.8397C3.10485 7.83975 3.11764 7.83653 3.1432 7.83009C5.16174 7.32158 5.17213 7.3216 6.20204 7.3216M3.92561 1.03083L17.7567 1C19.791 1 21.461 2.17244 21.3648 4.70044L20.3409 15.8326M6.20204 7.3216L5.16163 18.3304C5.16163 21.4758 7.08015 22 8.28285 22M8.28285 22C10.8758 22 12.0916 18.1013 9.37432 16.4349C8.89371 16.1402 8.6534 15.9928 8.64734 15.9452C8.64343 15.9145 8.64917 15.8941 8.66858 15.87C8.6986 15.8326 8.96231 15.8326 9.48972 15.8326H20.3409M8.28285 22H21.3648C24.394 22 24.9241 17.3287 22.3669 15.8545C22.3519 15.8458 22.3444 15.8414 22.3358 15.8384C22.3309 15.8366 22.3254 15.8352 22.3202 15.8342C22.3113 15.8326 22.3023 15.8326 22.2845 15.8326H20.3409" stroke="#1C943F" stroke-width="2" stroke-linecap="round" stroke-linejoin="round"/>
<path d="M10.4091 6.25H17.2046M10.1478 10.45H16.9432" stroke="#1C943F" stroke-width="2" stroke-linecap="round" stroke-linejoin="round"/>
</svg>
