<svg width="16" height="22" viewBox="0 0 16 22" fill="none" xmlns="http://www.w3.org/2000/svg">
<path d="M1 13.06C1 11.7851 1 11.1476 1.32467 10.7008C1.42953 10.5564 1.55644 10.4295 1.70077 10.3247C2.14764 10 2.78509 10 4.06 10H11.94C13.2149 10 13.8524 10 14.2992 10.3247C14.4436 10.4295 14.5705 10.5564 14.6753 10.7008C15 11.1476 15 11.7851 15 13.06V17.94C15 19.2149 15 19.8524 14.6753 20.2992C14.5705 20.4436 14.4436 20.5705 14.2992 20.6753C13.8524 21 13.2149 21 11.94 21H4.06C2.78509 21 2.14764 21 1.70077 20.6753C1.55644 20.5705 1.42953 20.4436 1.32467 20.2992C1 19.8524 1 19.2149 1 17.94V13.06Z" fill="#1C943F" stroke="#1C943F" stroke-width="2"/>
<path d="M3.13635 9V6C3.13635 3 5.2727 1 8.13635 1C11 1 13.1364 3 13.1364 6V9" stroke="#1C943F" stroke-width="2" stroke-linecap="round"/>
</svg>
