<svg width="18" height="24" viewBox="0 0 18 24" fill="none" xmlns="http://www.w3.org/2000/svg">
<path d="M1 14.5C1 13.0001 1 12.2502 1.38197 11.7244C1.50533 11.5546 1.65464 11.4053 1.82443 11.282C2.35016 10.9 3.10011 10.9 4.6 10.9H13.4C14.8999 10.9 15.6498 10.9 16.1756 11.282C16.3454 11.4053 16.4947 11.5546 16.618 11.7244C17 12.2502 17 13.0001 17 14.5V19.4C17 20.8999 17 21.6498 16.618 22.1756C16.4947 22.3454 16.3454 22.4947 16.1756 22.618C15.6498 23 14.8999 23 13.4 23H4.6C3.10011 23 2.35016 23 1.82443 22.618C1.65464 22.4947 1.50533 22.3454 1.38197 22.1756C1 21.6498 1 20.8999 1 19.4V14.5Z" stroke="#1C943F" stroke-width="2"/>
<path d="M3.5 9.8V6.5C3.5 3.2 6.15581 1 9 1C11.8442 1 14.5 3.2 14.5 6.5V9.8" stroke="#1C943F" stroke-width="2" stroke-linecap="round"/>
</svg>
