<svg width="24" height="26" viewBox="0 0 24 26" fill="none" xmlns="http://www.w3.org/2000/svg">
<path d="M17.9731 7.20703C17.9731 7.75931 18.4208 8.20703 18.9731 8.20703C19.5254 8.20703 19.9731 7.75931 19.9731 7.20703H18.9731H17.9731ZM1.1132 19.0302L2.08111 18.7789H2.08111L1.1132 19.0302ZM5.42963 22.5714C5.98192 22.5714 6.42963 22.1237 6.42963 21.5714C6.42963 21.0191 5.98192 20.5714 5.42963 20.5714V21.5714V22.5714ZM3.46237 21.4546L3.72889 20.4908H3.72889L3.46237 21.4546ZM17.3073 1.37369L17.7727 0.488599L17.7727 0.488599L17.3073 1.37369ZM18.7591 2.87203L17.8625 3.31474V3.31474L18.7591 2.87203ZM2.81397 1.37369L3.27938 2.25879L2.81397 1.37369ZM1.3621 2.87203L2.25877 3.31474L1.3621 2.87203ZM5.53033 4.67533C4.97805 4.67533 4.53033 5.12304 4.53033 5.67533C4.53033 6.22761 4.97805 6.67533 5.53033 6.67533V5.67533V4.67533ZM14.5909 6.67533C15.1432 6.67533 15.5909 6.22761 15.5909 5.67533C15.5909 5.12304 15.1432 4.67533 14.5909 4.67533V5.67533V6.67533ZM5.53033 9.35065C4.97805 9.35065 4.53033 9.79837 4.53033 10.3507C4.53033 10.9029 4.97805 11.3507 5.53033 11.3507V10.3507V9.35065ZM11.6748 11.3507C12.2271 11.3507 12.6748 10.9029 12.6748 10.3507C12.6748 9.79837 12.2271 9.35065 11.6748 9.35065V10.3507V11.3507ZM5.53033 14.026C4.97805 14.026 4.53033 14.4737 4.53033 15.026C4.53033 15.5783 4.97805 16.026 5.53033 16.026V15.026V14.026ZM10.0606 16.026C10.6129 16.026 11.0606 15.5783 11.0606 15.026C11.0606 14.4737 10.6129 14.026 10.0606 14.026V15.026V16.026ZM22.9531 15.4415L21.9627 15.5791V15.5791L22.9531 15.4415ZM21.6971 19.3865L22.4152 20.0824L21.6971 19.3865ZM15.1505 12.6304L15.8686 13.3262L15.1505 12.6304ZM18.9731 11.3341L18.8267 12.3233L18.9731 11.3341ZM19.3016 12.6719L20.0197 13.3678L19.3016 12.6719ZM18.099 13.913L17.3808 13.2172V13.2172L18.099 13.913ZM17.9974 16.4485L17.2792 17.1444L17.9974 16.4485ZM20.4542 16.3436L21.1723 17.0395V17.0395L20.4542 16.3436ZM21.6568 15.1025L20.9386 14.4067V14.4067L21.6568 15.1025ZM13.9503 16.8987L14.9295 16.6955L13.9503 16.8987ZM13.7019 17.8787L14.4201 18.5746L13.7019 17.8787ZM10.5099 21.1729L9.79178 20.477L10.5099 21.1729ZM10.3281 24.3633L9.60993 25.0591L10.3281 24.3633ZM13.4195 24.1756L14.1377 24.8715L13.4195 24.1756ZM17.5611 20.6251L17.7769 19.6486V19.6486L17.5611 20.6251ZM16.6115 20.8814L15.8934 20.1855L16.6115 20.8814ZM17.0827 20.5533L16.941 19.5634H16.941L17.0827 20.5533ZM16.9299 20.5999L17.3638 21.5008L16.9299 20.5999ZM19.6846 11.5986L20.4876 11.0027L20.4876 11.0027L19.6846 11.5986ZM19.7948 11.9401L18.7948 11.9298L19.7948 11.9401ZM14.0199 17.3925L15.011 17.5256L15.011 17.5256L14.0199 17.3925ZM13.9747 17.5502L13.0636 17.1381L13.0636 17.1381L13.9747 17.5502ZM22.6969 14.7073L23.3169 13.9227L23.3169 13.9227L22.6969 14.7073ZM22.3659 14.5935L22.355 13.5936H22.355L22.3659 14.5935ZM6.31556 1V2H13.8057V1V0H6.31556V1ZM1 17H2V6.48571H1H0V17H1ZM1 17H0C0 18.0003 -0.00809741 18.6908 0.145294 19.2815L1.1132 19.0302L2.08111 18.7789C2.0081 18.4977 2 18.1254 2 17H1ZM5.42963 21.5714V20.5714C4.33352 20.5714 3.98762 20.5623 3.72889 20.4908L3.46237 21.4546L3.19585 22.4184C3.78207 22.5805 4.46602 22.5714 5.42963 22.5714V21.5714ZM1.1132 19.0302L0.145294 19.2815C0.539187 20.7986 1.6935 22.003 3.19585 22.4184L3.46237 21.4546L3.72889 20.4908C2.93829 20.2722 2.30161 19.6282 2.08111 18.7789L1.1132 19.0302ZM13.8057 1V2C14.753 2 15.4014 2.00083 15.9037 2.04318C16.3933 2.08446 16.6537 2.15986 16.8418 2.25879L17.3073 1.37369L17.7727 0.488599C17.2501 0.213829 16.6901 0.102388 16.0717 0.0502475C15.466 -0.000827909 14.719 0 13.8057 0V1ZM18.9731 7.20703H19.9731C19.9731 6.3469 20.0097 5.30018 20.0019 4.58354C19.9976 4.19207 19.9815 3.80906 19.9373 3.46241C19.8945 3.12629 19.8177 2.75733 19.6558 2.42933L18.7591 2.87203L17.8625 3.31474C17.8816 3.35344 17.9221 3.46969 17.9533 3.71511C17.9833 3.95 17.998 4.24486 18.002 4.60544C18.0106 5.3929 17.9731 6.14698 17.9731 7.20703H18.9731ZM17.3073 1.37369L16.8418 2.25878C17.2764 2.48729 17.6355 2.8551 17.8625 3.31474L18.7591 2.87203L19.6558 2.42933C19.2457 1.59871 18.5883 0.917509 17.7727 0.488599L17.3073 1.37369ZM6.31556 1V0C5.40227 0 4.65525 -0.000827909 4.04951 0.0502475C3.43113 0.102388 2.87109 0.213829 2.34855 0.488599L2.81397 1.37369L3.27938 2.25879C3.4675 2.15986 3.72795 2.08446 4.21755 2.04318C4.71978 2.00083 5.36823 2 6.31556 2V1ZM1 6.48571H2C2 5.50963 2.00073 4.83585 2.04214 4.31276C2.0827 3.80044 2.15753 3.5198 2.25877 3.31474L1.3621 2.87203L0.465433 2.42933C0.204574 2.95768 0.0983476 3.52378 0.0483818 4.15491C-0.000730515 4.77526 0 5.54162 0 6.48571H1ZM2.81397 1.37369L2.34855 0.488599C1.53288 0.917508 0.875525 1.59871 0.465433 2.42933L1.3621 2.87203L2.25877 3.31474C2.4857 2.8551 2.84482 2.48729 3.27938 2.25879L2.81397 1.37369ZM5.53033 5.67533V6.67533H14.5909V5.67533V4.67533H5.53033V5.67533ZM5.53033 10.3507V11.3507H11.6748V10.3507V9.35065H5.53033V10.3507ZM5.53033 15.026V16.026H10.0606V15.026V14.026H5.53033V15.026ZM22.9531 15.4415L21.9627 15.5791C22.1193 16.7066 21.7832 17.8606 20.9789 18.6906L21.6971 19.3865L22.4152 20.0824C23.6806 18.7765 24.1784 16.9933 23.9436 15.3039L22.9531 15.4415ZM15.1505 12.6304L15.8686 13.3262C16.6699 12.4994 17.7669 12.1665 18.8267 12.3233L18.9731 11.3341L19.1195 10.3449C17.4498 10.0978 15.7007 10.6255 14.4323 11.9345L15.1505 12.6304ZM19.3016 12.6719L18.5834 11.9761L17.3808 13.2172L18.099 13.913L18.8171 14.6089L20.0197 13.3678L19.3016 12.6719ZM18.099 13.913L17.3808 13.2172C17.1412 13.4645 16.6835 13.9763 16.5084 14.6832C16.3094 15.4868 16.5166 16.3573 17.2792 17.1444L17.9974 16.4485L18.7155 15.7526C18.5341 15.5654 18.474 15.4312 18.4527 15.3584C18.4326 15.2895 18.4334 15.23 18.4498 15.1639C18.4917 14.9946 18.6304 14.8016 18.8171 14.6089L18.099 13.913ZM17.9974 16.4485L17.2792 17.1444C18.0427 17.9324 18.9117 18.1661 19.73 17.9503C20.4341 17.7646 20.9365 17.2829 21.1723 17.0395L20.4542 16.3436L19.736 15.6477C19.5455 15.8444 19.365 15.9782 19.22 16.0164C19.1698 16.0297 19.1294 16.03 19.0791 16.0143C19.0226 15.9967 18.8977 15.9407 18.7155 15.7526L17.9974 16.4485ZM20.4542 16.3436L21.1723 17.0395L22.3749 15.7984L21.6568 15.1025L20.9386 14.4067L19.736 15.6477L20.4542 16.3436ZM13.9503 16.8987L14.9295 16.6955C14.6793 15.4903 15.0027 14.2199 15.8686 13.3262L15.1505 12.6304L14.4323 11.9345C13.0696 13.3408 12.5972 15.2997 12.9712 17.1019L13.9503 16.8987ZM13.7019 17.8787L12.9838 17.1828L9.79178 20.477L10.5099 21.1729L11.2281 21.8687L14.4201 18.5746L13.7019 17.8787ZM10.5099 21.1729L9.79178 20.477C9.32784 20.9558 8.88194 21.6501 8.74987 22.4679C8.6096 23.3364 8.84052 24.2651 9.60993 25.0591L10.3281 24.3633L11.0462 23.6674C10.7246 23.3354 10.6827 23.0442 10.7243 22.7867C10.7741 22.4785 10.9646 22.1406 11.2281 21.8687L10.5099 21.1729ZM10.3281 24.3633L9.60993 25.0591C10.3816 25.8555 11.3033 26.1095 12.1797 25.9587C12.9946 25.8186 13.6757 25.3483 14.1377 24.8715L13.4195 24.1756L12.7014 23.4797C12.436 23.7536 12.1169 23.9402 11.8407 23.9877C11.626 24.0246 11.3657 23.997 11.0462 23.6674L10.3281 24.3633ZM21.6971 19.3865L20.9789 18.6906C20.1169 19.5803 18.9104 19.8992 17.7769 19.6486L17.5611 20.6251L17.3453 21.6015C19.1259 21.9951 21.0486 21.4927 22.4152 20.0824L21.6971 19.3865ZM13.4195 24.1756L14.1377 24.8715L17.3297 21.5773L16.6115 20.8814L15.8934 20.1855L12.7014 23.4797L13.4195 24.1756ZM17.5611 20.6251L17.7769 19.6486C17.6596 19.6227 17.5322 19.5942 17.4234 19.5763C17.3179 19.5588 17.1414 19.5347 16.941 19.5634L17.0827 20.5533L17.2243 21.5432C17.1666 21.5515 17.1234 21.5504 17.1036 21.5493C17.0852 21.5482 17.0803 21.5467 17.0978 21.5496C17.1148 21.5524 17.1416 21.5574 17.1853 21.5666C17.2289 21.5758 17.2796 21.587 17.3453 21.6015L17.5611 20.6251ZM16.6115 20.8814L17.3297 21.5773C17.3697 21.536 17.3992 21.5056 17.4247 21.4799C17.4501 21.4543 17.464 21.441 17.4713 21.4344C17.4874 21.4196 17.4457 21.4614 17.3638 21.5008L16.9299 20.5999L16.4959 19.6989C16.3286 19.7795 16.2054 19.8819 16.1225 19.9576C16.0452 20.0282 15.9625 20.1142 15.8934 20.1855L16.6115 20.8814ZM17.0827 20.5533L16.941 19.5634C16.7797 19.5865 16.6421 19.6285 16.4959 19.6989L16.9299 20.5999L17.3638 21.5008C17.3589 21.5032 17.3336 21.515 17.2959 21.5265C17.2582 21.538 17.2303 21.5424 17.2243 21.5432L17.0827 20.5533ZM18.9731 11.3341L18.8267 12.3233C18.9278 12.3383 18.9948 12.3483 19.0499 12.3583C19.1046 12.3682 19.1197 12.3733 19.1155 12.372C19.1076 12.3694 19.0669 12.3554 19.0143 12.3201C18.9881 12.3025 18.9625 12.282 18.9386 12.2591C18.9149 12.2362 18.896 12.214 18.8815 12.1945L19.6846 11.5986L20.4876 11.0027C20.2722 10.7124 19.9987 10.5558 19.732 10.4694C19.5213 10.4011 19.2799 10.3686 19.1195 10.3449L18.9731 11.3341ZM19.3016 12.6719L20.0197 13.3678C20.1633 13.2196 20.345 13.0354 20.478 12.853C20.6337 12.6395 20.7907 12.3414 20.7947 11.9503L19.7948 11.9401L18.7948 11.9298C18.7955 11.8594 18.8102 11.7918 18.8323 11.7357C18.8517 11.6862 18.87 11.6637 18.862 11.6746C18.8531 11.6869 18.8305 11.7152 18.7799 11.7703C18.7294 11.8253 18.6679 11.8888 18.5834 11.9761L19.3016 12.6719ZM19.6846 11.5986L18.8815 12.1945C18.8524 12.1553 18.8363 12.1245 18.8287 12.1088C18.8204 12.0916 18.8154 12.0782 18.8121 12.0681C18.8089 12.058 18.8052 12.0446 18.802 12.0264C18.7991 12.0098 18.7943 11.9767 18.7948 11.9298L19.7948 11.9401L20.7947 11.9503C20.7967 11.7602 20.7581 11.5861 20.7155 11.4539C20.673 11.3222 20.6022 11.1571 20.4876 11.0027L19.6846 11.5986ZM13.9503 16.8987L12.9712 17.1019C12.9852 17.1696 12.9962 17.2224 13.0052 17.2678C13.0142 17.3135 13.0194 17.3426 13.0224 17.3619C13.0254 17.3818 13.0244 17.3802 13.0236 17.3656C13.0228 17.3497 13.0218 17.3115 13.0288 17.2593L14.0199 17.3925L15.011 17.5256C15.0368 17.333 15.0153 17.1621 14.9988 17.0557C14.9818 16.9463 14.9548 16.8176 14.9295 16.6955L13.9503 16.8987ZM13.7019 17.8787L14.4201 18.5746C14.517 18.4746 14.7563 18.2487 14.8859 17.9622L13.9747 17.5502L13.0636 17.1381C13.0988 17.0603 13.1364 17.0202 13.1225 17.0364C13.1159 17.0441 13.103 17.0586 13.0781 17.0848C13.0533 17.111 13.0238 17.1415 12.9838 17.1828L13.7019 17.8787ZM14.0199 17.3925L13.0288 17.2593C13.0292 17.2564 13.0326 17.2321 13.0423 17.1981C13.0521 17.164 13.0621 17.1413 13.0636 17.1381L13.9747 17.5502L14.8859 17.9622C14.9515 17.8171 14.9898 17.6828 15.011 17.5256L14.0199 17.3925ZM22.9531 15.4415L23.9436 15.3039C23.9203 15.1357 23.8897 14.8949 23.8259 14.6854C23.7467 14.425 23.6008 14.1471 23.3169 13.9227L22.6969 14.7073L22.0768 15.4918C22.0569 15.4761 22.035 15.4562 22.0131 15.4319C21.9911 15.4076 21.9721 15.3822 21.9563 15.357C21.9247 15.307 21.9134 15.2702 21.9125 15.2675C21.9121 15.2662 21.9137 15.2712 21.9168 15.285C21.9198 15.2989 21.9236 15.3184 21.9283 15.346C21.9383 15.4046 21.9482 15.4752 21.9627 15.5791L22.9531 15.4415ZM21.6568 15.1025L22.3749 15.7984C22.4595 15.7112 22.521 15.6478 22.5742 15.5957C22.6277 15.5434 22.6547 15.5206 22.6656 15.5121C22.6755 15.5044 22.6502 15.526 22.5957 15.5488C22.5338 15.5748 22.4577 15.5926 22.3769 15.5935L22.3659 14.5935L22.355 13.5936C21.9491 13.598 21.6461 13.7716 21.4388 13.9325C21.2608 14.0707 21.0818 14.2589 20.9386 14.4067L21.6568 15.1025ZM22.6969 14.7073L23.3169 13.9227C23.1638 13.8017 22.9983 13.7258 22.8645 13.6798C22.7312 13.634 22.5525 13.5914 22.355 13.5936L22.3659 14.5935L22.3769 15.5935C22.3243 15.5941 22.2863 15.5884 22.266 15.5846C22.2441 15.5805 22.2273 15.5756 22.2144 15.5712C22.2015 15.5668 22.1856 15.5604 22.1664 15.5505C22.1485 15.5413 22.1164 15.5232 22.0768 15.4918L22.6969 14.7073Z" fill="#1C943F"/>
</svg>
