<svg width="34" height="16" viewBox="0 0 34 16" fill="none" xmlns="http://www.w3.org/2000/svg">
<path d="M11.077 15H2.92302C2.20233 15 1.84199 15 1.42699 14.6657C1.14802 14.4411 0.859798 13.83 0.863849 13.4718C0.869876 12.939 1.01445 12.7636 1.30359 12.4128C2.30939 11.1925 4.0476 10 7 10C9.9524 10 11.6906 11.1925 12.6964 12.4128C12.9856 12.7636 13.1301 12.939 13.1362 13.4718C13.1402 13.83 12.852 14.4411 12.573 14.6657C12.158 15 11.7977 15 11.077 15Z" stroke="#1C943F" stroke-width="1.7" stroke-linecap="round"/>
<circle cx="7" cy="4" r="3" stroke="#1C943F" stroke-width="1.7"/>
<path d="M20.6555 3.46667H13.1M13.1 3.46667L15.3667 1.2M13.1 3.46667L15.3667 5.73333" stroke="#1C943F" stroke-width="1.7" stroke-linecap="round" stroke-linejoin="round"/>
<path d="M13.1 8.75556H20.6556M20.6556 8.75556L18.3889 6.48889M20.6556 8.75556L18.3889 11.0222" stroke="#1C943F" stroke-width="1.7" stroke-linecap="round" stroke-linejoin="round"/>
<path d="M22.923 15H31.077C31.7977 15 32.158 15 32.573 14.6657C32.852 14.4411 33.1402 13.83 33.1362 13.4718C33.1301 12.939 32.9856 12.7636 32.6964 12.4128C31.6906 11.1925 29.9524 10 27 10C24.0476 10 22.3094 11.1925 21.3036 12.4128C21.0144 12.7636 20.8699 12.939 20.8638 13.4718C20.8598 13.83 21.148 14.4411 21.427 14.6657C21.842 15 22.2023 15 22.923 15Z" stroke="#1C943F" stroke-width="1.7" stroke-linecap="round"/>
<circle cx="3" cy="3" r="3" transform="matrix(-1 0 0 1 30 1)" stroke="#1C943F" stroke-width="1.7"/>
</svg>
