<svg width="27" height="22" viewBox="0 0 27 22" fill="none" xmlns="http://www.w3.org/2000/svg">
<path d="M13.5988 21H5.31032C4.42907 21 3.98845 21 3.43232 20.5369C3.06871 20.2341 2.69121 19.3737 2.7146 18.9011C2.75037 18.1783 2.91684 17.9974 3.24976 17.6356C4.43487 16.3476 6.36179 15.1818 9.45456 15.1818C12.5473 15.1818 14.4742 16.3477 15.6594 17.6356C15.9923 17.9974 16.1587 18.1783 16.1945 18.9011C16.2179 19.3737 15.8404 20.2341 15.4768 20.5369C14.9207 21 14.48 21 13.5988 21Z" stroke="#1C943F" stroke-width="2" stroke-linecap="round"/>
<circle cx="9.45451" cy="8.63636" r="3.63636" stroke="#1C943F" stroke-width="2"/>
<rect x="1.45456" y="1" width="24" height="20" rx="3" stroke="#1C943F" stroke-width="2"/>
</svg>
