<svg width="25" height="25" viewBox="0 0 25 25" fill="none" xmlns="http://www.w3.org/2000/svg">
<circle cx="15.3" cy="15.3" r="6.3" stroke="#1C943F" stroke-width="2"/>
<path d="M21.9393 24.0607C22.5251 24.6464 23.4749 24.6464 24.0607 24.0607C24.6465 23.4749 24.6465 22.5251 24.0607 21.9393L23 23L21.9393 24.0607ZM19.5 19.5L18.4394 20.5607L21.9393 24.0607L23 23L24.0607 21.9393L20.5607 18.4393L19.5 19.5Z" fill="#1C943F"/>
<path d="M22 6.83333V6.6C22 4.63982 22 3.65972 21.6185 2.91103C21.283 2.25247 20.7475 1.71703 20.089 1.38148C19.3403 1 18.3602 1 16.4 1H6.6C4.63982 1 3.65972 1 2.91103 1.38148C2.25247 1.71703 1.71703 2.25247 1.38148 2.91103C1 3.65972 1 4.63982 1 6.6V16.4C1 18.3602 1 19.3403 1.38148 20.089C1.71703 20.7475 2.25247 21.283 2.91103 21.6185C3.65972 22 4.63982 22 6.6 22H6.83333" stroke="#1C943F" stroke-width="2" stroke-linecap="round"/>
</svg>
